# xmcd
#
# Track frame offsets: 
#        150
#        32949
#        56251
#        79471
#        105190
#        149540
#        173269
#        196811
#        245544
#        269343
#        296991
#        316066
#
# Disc length: 4560 seconds
#
# Revision: 0
# Processed by: cddbd v1.5.2PL0 Copyright (c) Steve Scherf et al.
# Submitted via: ExactAudioCopy v1.0b6
#
DISCID=a411ce0c
DTITLE=Travis Greene - The Hill (2015)
DYEAR=2015
DGENRE=Gospel
TTITLE0=Here For You
TTITLE1=Gave It All
TTITLE2=Intentional
TTITLE3=You Got Up
TTITLE4=Made A Way
TTITLE5=Thank You For Being God
TTITLE6=Who You Were
TTITLE7=The Hill
TTITLE8=You Keep Me (feat. KJ Scriven and Laura Wilson)
TTITLE9=Just Want You (feat. Jordan Connell and Chandler Moore)
TTITLE10=Soul Will Sing
TTITLE11=Love Me Too Much
EXTD=
EXTT0=
EXTT1=
EXTT2=
EXTT3=
EXTT4=
EXTT5=
EXTT6=
EXTT7=
EXTT8=
EXTT9=
EXTT10=
EXTT11=
PLAYORDER=
